<svg width="521" height="346" xmlns="http://www.w3.org/2000/svg">
 <!-- Created with Method Draw - http://github.com/duopixel/Method-Draw/ -->
 <g>
  <title>background</title>
  <rect fill="none" id="canvas_background" height="348" width="523" y="-1" x="-1"/>
  <g display="none" overflow="visible" y="0" x="0" height="100%" width="100%" id="canvasGrid">
   <rect fill="url(#gridpattern)" stroke-width="0" y="0" x="0" height="100%" width="100%"/>
  </g>
 </g>
 <g>
  <title>Layer 1</title>
  <path stroke="#000" id="svg_10" d="m4.402499,174.655907l0,0c0,-90.850861 73.649166,-164.500052 164.499998,-164.500052l0,0c43.628093,0 85.46933,17.331195 116.319042,48.180939c30.849744,30.849755 48.180956,72.690972 48.180956,116.319113l0,0c0,90.85085 -73.649166,164.500052 -164.499998,164.500052l0,0c-90.850821,0 -164.499998,-73.649201 -164.499998,-164.500052zm82.249999,0l0,0c0,45.42542 36.824605,82.250026 82.249999,82.250026c45.425427,0 82.249999,-36.824606 82.249999,-82.250026c0,-45.42542 -36.824594,-82.250026 -82.249999,-82.250026l0,0c-45.425394,0 -82.249999,36.824617 -82.249999,82.250026z" stroke-opacity="null" stroke-width="0" fill="#0876ff"/>
  <path id="svg_9" d="m393.5,9.45313c0,0 127,0 126.5,-0.45313c0.5,0.45313 -168.13125,169.08438 -169,168c0.33625,0.66375 164.66599,162.61911 163,163c0.13939,0.13939 -129.5,-0.54687 -130,-1c0.5,0.45313 -160.13935,-160.18622 -161,-161c0.8336,0.8336 170.5,-168.54687 170.5,-168.54687z" fill-opacity="null" stroke-opacity="null" stroke-width="0" stroke="#000" fill="#ff0859"/>
 </g>
</svg>